<svg preserveAspectRatio="none" width="100%" height="100%" overflow="visible" style="display: block;" viewBox="0 0 323 349" fill="none" xmlns="http://www.w3.org/2000/svg">
<path id="Vector" d="M148.292 1.01849C206.164 -3.57446 248.994 8.50329 275.497 14.6272C308.288 22.044 328.434 74.0634 321.708 107.847C314.981 141.631 310.383 148.299 293.65 164.63C291.106 167.195 288.756 169.946 286.619 172.863L285.672 174.121C277.931 184.499 270.291 196.032 246.392 204.026C214.853 214.641 180.609 218.452 178.209 208.586C177.431 205.387 180.812 204.061 185.375 202.7C186.072 202.503 186.689 202.085 187.132 201.509C188.099 200.453 189.244 199.578 190.513 198.923C195.144 196.337 200.216 195.522 204.035 191.438C206.807 188.649 208.226 184.907 210.796 181.947C215.972 176.557 222.047 172.123 228.746 168.848L231.382 167.419C234.763 165.514 238.38 163.609 241.524 161.466C253.863 153.368 258.9 136.664 268.837 126.015C271.744 122.919 275.193 120.095 278.371 117.066C278.715 116.76 278.981 116.375 279.148 115.944C280.984 111.819 282.126 107.416 282.528 102.914V102.37C288.275 83.6575 292.467 60.0464 288.782 60.931C283.137 62.3258 271.88 65.5919 261.198 68.756C251.733 71.5797 231.112 65.728 210.491 64.129C206.883 63.4693 203.179 63.562 199.607 64.4011C199.271 64.5002 198.943 64.6253 198.626 64.7754H197.916C194.198 64.3331 189.026 68.892 190.345 71.5797C190.799 72.5221 191.205 73.4873 191.562 74.4716L192.575 77.3634L193.15 78.8264C193.359 79.2553 193.468 79.7266 193.468 80.2043C193.468 80.682 193.359 81.1533 193.15 81.5822C192.846 82.1265 192.575 82.6708 192.271 83.1812C191.974 83.7931 191.857 84.4778 191.933 85.1545C192.271 86.8913 192.135 88.6877 191.54 90.353C190.945 92.0183 189.912 93.4903 188.552 94.6125C169.859 110.943 173.273 120.606 164.247 132.581C152.45 148.163 134.297 168.542 128.044 179.395C123.716 186.913 114.826 203.789 108.505 213.757C102.183 223.725 106.003 241.349 99.1074 249.208C92.2109 257.067 73.0439 284.013 65.7084 304.527C62.5309 313.373 54.0122 334.705 47.9274 347.157C47.6505 347.697 47.2347 348.153 46.7233 348.477C46.2118 348.801 45.6235 348.981 45.0194 348.999C44.4154 349.016 43.8178 348.87 43.2888 348.575C42.7599 348.282 42.3189 347.85 42.0117 347.327C41.6349 346.578 40.9968 345.997 40.2201 345.694C39.0369 345.217 38.1918 342.087 37.3805 338.89L37.0425 337.562C36.6386 335.49 36.0036 333.47 35.1495 331.541C34.7304 330.798 34.5866 329.93 34.7438 329.091C35.4199 326.029 36.1298 322.933 36.8059 319.973C38.5636 312.284 42.6878 297.179 46.9471 281.461L47.826 278.331C48.0964 277.276 48.4007 276.221 48.6711 275.167L49.5501 272.037C54.2826 254.787 58.7448 238.457 59.9955 232.128C61.2463 225.801 65.7423 210.151 70.441 194.024L71.6918 189.738C76.6609 172.726 81.5288 156.226 82.5092 151.429C83.3543 147.176 86.3628 132.207 89.8784 116.421L90.4531 113.936C92.7856 103.526 95.3209 92.9795 97.5856 85.1205C97.6952 84.5568 97.6608 83.9747 97.4857 83.428C97.3117 82.8815 97.0024 82.3882 96.5871 81.9943C96.1721 81.6004 95.6648 81.3186 95.1123 81.1751C94.56 81.0316 93.9805 81.0313 93.4278 81.1739L91.67 81.7183L88.2896 82.841C71.0437 88.749 53.4411 93.5445 35.5889 97.1982C28.5915 98.3209 21.763 93.7961 15.7459 90.3939C13.759 89.5088 11.5133 89.4116 9.45829 90.1216C8.93891 90.2417 8.3987 90.2365 7.88169 90.1064C7.36479 89.9764 6.88569 89.7251 6.48349 89.3731C3.77922 86.9236 1.04101 83.7596 1.95378 80.5616C2.27888 79.6487 2.27888 78.6506 1.95378 77.7377C1.95378 77.2955 1.95378 76.8531 2.19038 76.3768C2.29155 75.883 2.29155 75.3737 2.19038 74.8798C0.501127 70.4598 -0.22517 65.726 0.06069 60.9989C0.263564 60.5567 0.432607 60.0804 0.601543 59.638C0.886254 58.9053 0.886254 58.0914 0.601543 57.3586L0.297394 56.6442C0.297394 56.236 0.0945203 55.7596 0.297394 55.2833C0.669204 53.5482 3.91443 50.0099 4.15103 48.0707C4.38075 46.7688 5.02084 45.5759 5.97646 44.6685C8.7268 42.5145 11.6561 40.6022 14.7317 38.9528C14.998 38.7863 15.2373 38.5797 15.4416 38.3405L18.8221 35.7888C57.494 20.1387 100.189 4.82894 148.292 1.01849Z" fill="var(--fill-0, black)"/>
</svg>
